<svg version="1.2" xmlns="http://www.w3.org/2000/svg" viewBox="0 0 500 500" width="500" height="500">
	<title>Design sem nome</title>
	<style>
		.s0 { fill: #5d5fef } 
	</style>
	<path id="Preencher com Cor Sólida 1" fill-rule="evenodd" class="s0" d="m234 103c-5.8 0.9-14.1 2.7-18.5 3.9-4.4 1.2-12.1 3.9-17 6-4.9 2.1-12.2 5.6-16 7.8-3.8 2.3-11.1 7.2-16 11-4.9 3.9-12.5 10.5-16.7 14.9-4.3 4.3-10.4 11.4-13.5 15.6-3.2 4.2-7.3 10.1-9 13-1.8 2.9-5.3 9.8-7.7 15.3-2.4 5.5-4.7 11-5 12.3-0.6 2.1-0.4 2.2 6.6 2.2h7.3c6.2-13.5 11.1-22.2 14.9-28 4.8-7.3 10.7-14.2 19-22.6 7.2-7.2 15.3-14.2 20.1-17.3 4.4-2.8 11.2-6.7 15-8.6 3.8-1.9 11.3-4.8 16.5-6.5 5.2-1.7 12.9-3.6 17-4.1 4.1-0.6 9.1-1.4 11-1.8l3.5-0.7c0.4-11.2 0.2-14.4-0.2-14.3-0.5 0-5.5 0.9-11.3 1.9zm25.1 5.6l-0.1 6.9c15.1 2.2 24.2 4.1 30 5.7 5.8 1.6 14.1 4.6 18.5 6.7 4.4 2 11.4 5.9 15.5 8.5 4.1 2.7 11.9 9.2 17.3 14.5 5.5 5.3 12 12.3 14.7 15.6 2.6 3.3 6.8 9.4 9.3 13.5 2.4 4.1 6.2 11.4 8.3 16.3l3.9 8.7h14.5c-0.9-4.3-3.7-10.9-6.9-17.5-3.2-6.6-8.7-16.3-12.2-21.5-4-6.1-10.4-13.6-17.8-21-6.5-6.4-15.6-14.2-20.6-17.6-4.9-3.4-13.1-8.2-18-10.6-4.9-2.5-12.4-5.7-16.5-7.1-4.1-1.3-11.8-3.4-17-4.5-5.2-1.1-12.5-2.4-16.1-2.7l-6.6-0.7zm-32.7 24.9c-6.6 1.9-16.7 5.7-22.5 8.5-5.7 2.8-13.4 7.2-17 9.8-3.5 2.5-10 8.2-14.4 12.6-4.3 4.4-10.3 11.2-13.2 15-2.9 3.9-7.3 11.1-9.8 16-2.5 5-4.3 9.4-4 9.8 0.2 0.4 2.6 0.7 5.2 0.7 2.6 0 5.3-0.3 5.9-0.7 0.7-0.4 3.8-5 6.9-10.3 3.1-5.2 8-12.4 11-16 2.9-3.5 7.7-8.5 10.6-11.1 2.9-2.5 8.3-6.6 11.8-9.1 3.6-2.6 9.5-6 13-7.6 3.6-1.6 9.9-3.9 14-5.2 4.2-1.2 10.7-2.7 14.5-3.4l7-1.1 0.4-11.5c-5.7 0.1-12.8 1.7-19.4 3.6zm32.8 2.1l0.2 5.8c10.1 1 16.2 2 20 2.9 3.9 0.9 12 4.1 18 7.1 6.8 3.4 14.1 8 19 12.1 4.4 3.6 11.2 10.1 15 14.4 4.8 5.3 8.8 11.3 12.5 18.5l5.5 10.7c8.6-1 11.2-1.5 11.3-1.7 0.1-0.3-1.8-4.4-4.4-9.2-2.5-4.8-7.2-12.6-10.4-17.3-3.2-4.6-8.2-10.8-11.1-13.5-2.9-2.8-7.8-7.2-10.9-9.7-3-2.5-10.4-7.3-16.5-10.7-6-3.3-15-7.4-20-9-4.9-1.6-11.2-3.4-14-3.9-2.7-0.6-7.1-1.3-9.7-1.7l-4.7-0.6zm-27.3 24.2c-4.7 1.6-11.6 4.4-15.5 6.4-3.8 1.9-9.7 5.5-13 7.9-3.3 2.4-8.3 7.5-11.2 11.4-2.9 3.8-7.2 10.7-9.5 15.2l-4.3 8.3c6.2 5 10.9 9.1 14.5 12.3 3.6 3.2 14 12.9 23.2 21.5l16.7 15.6c0.1 31.4-0.2 40.5-0.6 40.5-0.4 0-1.8-1.8-3-4-1.3-2.2-5.8-7.6-10-12.1-4.3-4.5-10.5-10.3-13.8-12.9-3.3-2.6-7.4-5.4-9.2-6.3l-3.3-1.7 1.5-22.8c-12.9-11.9-14.1-12.7-14.9-11.3-0.5 0.9-0.5 14 0 32l0.9 30.3c6.2 5 11.2 8.7 15 11.3 6.9 4.7 7 4.8 6.7 8.9l-0.3 4.1c21.4 14.2 28.7 18.8 30.1 19.5 1.4 0.7 4.8 1.9 7.5 2.7 2.8 0.8 5.2 1.1 5.5 0.8 0.3-0.4 0.7-36.5 0.8-80.3 0.2-43.8 0.2-84.3-0.1-89.9-0.5-10-0.6-10.3-2.9-10.2-1.2 0-6.1 1.3-10.8 2.8zm27.6-2.3c-0.5 0.4-0.8 37.1-0.8 90.6 0.1 49.4 0.6 89.8 1 89.8 0.4 0 3.4-0.9 6.7-1.9 3.3-1.1 7.8-3.2 10-4.7 2.2-1.5 9-5.6 15-9.1 6.1-3.5 11.4-6.3 11.8-6.3 0.4 0 0.7-2.5 0.7-5.5 0-4.3 0.4-5.6 1.8-6.1 0.9-0.3 6.1-3.8 11.4-7.7l9.7-7.2 0.2-62c-7.4 7.1-10.6 9.7-11.8 10.3-2.2 1.2-2.3 1.8-2.3 13.2 0 10-0.2 12-1.5 12-0.8 0-3.8 1.5-6.7 3.3-2.9 1.9-7.5 5.3-10.3 7.7-2.7 2.4-7.6 7.3-10.9 10.9-3.2 3.6-7.2 8.6-8.7 11.1l-2.9 4.5c0.1-29.4 0.5-38.8 0.8-39.7 0.4-0.9 3.2-3.8 6.2-6.4 3-2.5 14.9-13.3 26.3-23.8 14.2-13 20.8-19.7 20.7-21.1 0-1.1-1.7-5.4-3.8-9.5-2.1-4.1-5.2-9.5-6.9-12-1.7-2.5-5.7-7-8.9-10.1-3.2-3-9.3-7.5-13.4-9.9-4.1-2.5-11.1-5.7-15.5-7.1-4.4-1.5-10-3-12.5-3.4-2.5-0.4-4.9-0.3-5.4 0.1zm-192.6 37.7c-1.3 1.3-2.3 3.3-2.2 4.5 0.1 1.2 1.3 2.9 2.7 3.7 1.4 0.8 3.2 1.5 4 1.5 0.8 0 2.2-1.3 3-3 0.8-1.6 1.5-3.4 1.5-4 0-0.5-1-1.9-2.2-3-1.3-1.1-2.8-2-3.4-2-0.6 0-2.1 1.1-3.4 2.3zm22.5-0.9c-1.1 0.7-2.3 2.3-2.7 3.5-0.6 1.6-0.1 2.8 1.7 4.6 1.7 1.7 3.6 2.5 6.1 2.5 2.4 0 4.3-0.8 6-2.5 1.3-1.4 2.4-3.2 2.4-4 0-0.8-0.9-2.4-2-3.5-1.3-1.3-3.3-2-5.7-2-2.1 0-4.7 0.6-5.8 1.4zm316.5 0.6c-1.1 1.1-2 2.8-2 3.8 0 0.9 0.8 2.5 1.7 3.5 1 0.9 3.4 2 5.3 2.4 2.5 0.5 4.3 0.2 6.3-1 1.5-0.9 3-2.6 3.4-3.8 0.5-1.4 0-2.8-1.8-4.5-1.8-1.8-3.4-2.4-6.6-2.4-2.9 0-4.9 0.7-6.3 2zm27-0.7c-0.9 0.7-1.9 2.1-2.3 3.2-0.4 1.2-0.1 2.9 0.8 4.3 1.1 1.6 2.5 2.2 5.3 2.2 2.3 0.1 4.4-0.6 5.4-1.7 1-1 1.8-2.3 1.8-3 0-0.7-1.1-2.4-2.5-3.8-1.4-1.4-3.5-2.5-4.7-2.5-1.3 0.1-3 0.6-3.8 1.3zm-386.9 25.3c-1.5 1-2.3 2.4-2.2 4 0.1 1.4 1.3 3.3 2.9 4.4 1.5 1.2 3.4 2.1 4.3 2 0.8 0 2.1-0.5 2.7-1.2 0.7-0.7 1.2-3 1.2-5 0-2.8-0.5-4.1-2-4.8-1.1-0.5-2.5-1-3.2-1-0.7 0-2.4 0.7-3.7 1.6zm23.4 0.2c-1 1-1.8 2.6-1.7 3.5 0.1 1 1.2 2.9 2.5 4.3l2.2 2.7c41.9-0.3 55.8-0.6 58-0.8 2.2-0.3 4.1-0.6 4.1-0.7 0.1-0.2 0.4-2.6 0.8-5.5l0.6-5.3c-62.3 0-64.8 0.1-66.5 1.8zm301.6 3.1c0.2 2.7 0.8 5.3 1.3 5.8 0.4 0.4 14.7 0.8 31.8 0.8 29.8 0 31-0.1 32.4-2 0.8-1.1 1.4-3.2 1.4-4.7 0-1.8-0.7-3.2-2-3.8-1.2-0.6-14.5-1-33.6-1h-31.7zm80.4-3.1c-1 1.1-1.8 2.9-1.7 4 0.1 1.2 1.5 3.1 3 4.3 1.5 1.1 3.1 2 3.5 2 0.4-0.1 1.6-1.1 2.7-2.3 1.2-1.3 2.1-3.2 2.1-4.3 0-1.1-0.8-2.8-1.8-3.7-1-1-2.7-1.7-3.9-1.8-1.1 0-2.9 0.8-3.9 1.8zm-293.8 4.9l-6.8 5.8 0.6 35.1c10.1 9.6 13.5 12.4 14 12.4 0.7 0 0.9-10 0.7-28.7-0.2-15.8-0.7-29.1-1.1-29.6-0.4-0.4-3.7 1.9-7.4 5zm183.3 23.8c0 16.2 0.4 29.5 0.8 29.5 0.4 0.1 4-2.8 8-6.2l7.2-6.3v-33.5c-11.2-10.1-14.8-13-15.2-13-0.4 0-0.8 13.3-0.8 29.5zm81.4-4c-1.8 3.4-1.8 3.5 0.2 6.2l2.1 2.8c30.1 0.5 41.2 0.4 44.1 0.1 4.2-0.5 5.5-1.1 6.7-3.1 1.4-2.2 1.4-2.8 0-5-1.1-1.9-2.5-2.6-5.7-2.9-2.4-0.3-13.6-0.7-24.9-1l-20.7-0.5zm-392.3-0.6c-1.1 1.1-2 2.5-2 3.1 0 0.5 0.8 2.3 1.7 4l1.8 3h50.5c2.3-3.9 3-5.8 3-6.8 0-0.9-0.7-2.4-1.6-3.2-1.4-1.3-6.2-1.6-26.5-1.8-23.9-0.3-24.9-0.3-26.9 1.7zm74.6-1c-2.2 0.3-4.4 1.4-5 2.3-0.9 1.4-0.8 2.4 0.4 4.5l1.6 2.8 32.4 0.5c0-3.5 0.3-6 0.7-7.8l0.8-3.3c-20.9 0.3-28.8 0.6-30.9 1zm271.1-0.3l-3.7 0.4v10c32.5 0 33-0.1 34.5-2.3 0.8-1.2 1.5-2.8 1.5-3.5 0-0.7-0.9-2.1-2-3.2-1.8-1.8-3.2-2-14.3-1.9-6.7 0.1-13.9 0.4-16 0.5zm-302.6 23.3c-5.3 0.5-6.8 1-8.4 3.1l-2 2.5 4.8 6.7c53.7-0.6 69.6-1 69.9-1.2 0.3-0.3 0-2.8-0.7-5.6l-1.2-5.2c-23.3-0.9-35.9-1.2-43-1.1-7.2 0.1-15.9 0.5-19.4 0.8zm307.4-0.2l-9 0.3-4.5 11c68.6 0 70.1-0.1 72-2 1.1-1.1 2-2.6 2-3.3 0-0.7-0.9-2.5-2-4l-2-2.7c-36.8 0.3-51.6 0.5-56.5 0.7zm-337.1 2.5c-0.9 1.2-1.6 2.9-1.6 3.7 0.1 0.9 1 2.5 2.2 3.6 1.7 1.7 2.4 1.8 4.5 0.7 1.4-0.7 2.9-2.1 3.5-3.2 0.8-1.6 0.5-2.5-1.5-4.5-1.4-1.4-3.2-2.5-4-2.5-0.8 0-2.2 1-3.1 2.2zm411.6 0.1c-1.3 1.2-2.3 3.1-2.2 4 0.1 0.9 1.3 2.3 2.7 3.2 1.4 0.8 3.4 1.2 4.5 1 1.1-0.3 2.5-1.5 3.1-2.8 0.9-1.8 0.7-2.7-0.9-4.7-1.1-1.4-2.6-2.7-3.4-2.8-0.8-0.2-2.5 0.8-3.8 2.1zm-310 21.9c0 0.7 2.3 5.3 5.2 10.1 2.9 4.9 9.1 13.2 13.8 18.5 4.7 5.3 11 11.8 14 14.3 3 2.5 9.1 7.1 13.5 10.1 4.4 3 11.8 7.3 16.5 9.5 4.7 2.2 13 5.4 18.5 7.1 5.5 1.7 12.1 3.3 14.7 3.6l4.8 0.6c0.4-7.8 0.5-10.6 0.5-11.2 0-0.8-3-1.7-7.5-2.4-4.1-0.6-10.7-2.2-14.5-3.4-3.9-1.3-10.6-4.1-15-6.3-4.4-2.2-10.7-5.8-14-8.1-3.3-2.2-9.6-7.6-14.1-12.1-4.4-4.4-10.4-11-13.4-14.5-2.9-3.6-6.6-8.9-8.2-11.8l-2.8-5.2c-10.1 0-12 0.4-12 1.2zm199.5 6.7c-2.3 4.2-7.4 11.2-11.2 15.6-3.8 4.4-11.2 11.3-16.5 15.5-5.3 4.1-12.5 8.9-16 10.7-3.5 1.8-10.8 4.9-16.3 6.9-5.5 2-13.5 4.4-17.8 5.3l-7.8 1.6c0.1 8.9 0.4 11.7 0.8 11.9 0.4 0.2 4.8-0.4 9.8-1.5 4.9-1.1 13.5-3.8 19-6 5.5-2.2 13.6-6.1 18-8.6 4.4-2.6 11.8-7.6 16.5-11.3 4.7-3.8 11.2-9.7 14.5-13.2 3.3-3.5 8.9-10.9 12.6-16.4 3.6-5.4 7.3-11.4 8.1-13.3 0.8-1.8 1.5-3.4 1.4-3.6-0.1-0.1-2.5-0.5-5.4-0.8l-5.3-0.4zm-275.7-5.9c-0.9 0.6-2.2 2.1-2.8 3.3-1.1 1.9-0.9 2.5 1.1 4.4 1.3 1.3 3.1 2.3 4 2.3 1 0 2.7-1.2 3.8-2.5 1.1-1.4 1.7-3.1 1.3-3.8-0.3-0.7-1.3-2-2.2-3-0.9-1-2.1-1.8-2.6-1.7-0.6 0-1.7 0.5-2.6 1zm20.6 0.8c-1 1-1.8 2.5-1.7 3.3 0.1 0.7 0.9 2.4 1.7 3.6 1.1 1.7 2.5 2.3 5.2 2.3 2.1 0 4.8-0.7 6-1.5 1.3-0.9 2.3-2.3 2.3-3.3 0-0.9-0.7-2.7-1.5-4-1.2-1.7-2.5-2.2-5.9-2.2-2.8 0-4.9 0.6-6.1 1.8zm28.7-1.2c-1.7 0.2-3.2 0.8-3.2 1.4 0 0.5 1.9 5.4 4.3 10.7 2.4 5.4 6.2 12.9 8.4 16.8 2.2 3.8 6.7 10.3 10 14.5 3.3 4.1 9.5 10.8 13.9 14.9 4.3 4 10.8 9.7 14.4 12.6 3.6 2.9 10.3 7.6 15 10.4 4.7 2.8 13 6.9 18.5 9 5.5 2.1 13.8 4.9 18.5 6 4.7 1.2 12.5 2.8 17.5 3.6 4.9 0.7 9.3 1.1 9.7 0.9 0.5-0.2 0.8-3.4 0.8-6.9v-6.5c-7.4-0.9-13.1-1.9-17.5-2.7-4.4-0.9-10.9-2.5-14.5-3.6-3.6-1.1-10.8-4.1-16-6.7-5.2-2.7-13.6-7.7-18.5-11.2-5-3.5-13.7-11.1-19.5-16.9-5.8-5.7-13-14.1-16-18.5-3-4.3-8-12.4-11-17.9-5.1-9.1-5.9-10-8.5-10.1-1.7-0.1-4.5 0-6.3 0.2zm256.6 2.6c-0.7 1.8-2.9 6.6-4.9 10.8-2.1 4.1-6.3 11.1-9.5 15.5-3.1 4.4-8.4 11-11.8 14.8-3.4 3.8-9.3 9.4-13.1 12.6-3.9 3.1-9.9 7.7-13.5 10.1-3.6 2.4-10.1 6-14.5 8.1-4.4 2.1-12.1 5.1-17 6.7-5 1.7-14.1 3.8-20.3 4.8l-11.2 1.9v12.5c8.1 0 14.3-0.7 19-1.6 4.7-0.9 13-3.2 18.5-5.1 5.5-1.9 15.6-6.4 22.5-9.9 6.9-3.4 15.4-8.5 19-11.2 3.6-2.7 11.7-10.3 18-16.8 6.4-6.6 14-15.3 16.9-19.4 2.9-4.2 6.8-10.6 8.7-14.3 1.9-3.7 4.7-10.1 6.4-14.2 1.6-4.2 3-7.8 3-8 0-0.3-3.4-0.5-7.5-0.5h-7.6zm31.4-1.7c-1.4 0.8-2.4 2.3-2.3 3.2 0.1 1 0.8 2.7 1.6 4 1.1 1.6 2.5 2.2 5.3 2.2 2.1 0 4.8-0.6 6-1.5 1.2-0.8 2.2-2.4 2.2-3.5 0-1.1-0.9-2.9-2-4-1.1-1.2-3.3-2-5.2-2-1.8 0-4.3 0.7-5.6 1.6zm25.3 0.3c-1 1-1.8 2.6-1.7 3.7 0.1 1.1 1 2.7 2 3.7 0.9 1 2.6 1.7 3.6 1.5 1.1-0.1 2.9-1.6 4-3.1l2.1-2.8c-4.2-3.8-6.1-4.9-6.8-4.9-0.8 0-2.2 0.8-3.2 1.9z"/>
</svg>